<svg width="70" height="75" viewBox="0 0 70 75" fill="none" xmlns="http://www.w3.org/2000/svg">
<g clip-path="url(#clip0)">
<mask id="mask0" style="mask-type:alpha" maskUnits="userSpaceOnUse" x="3" y="10" width="64" height="65">
<path d="M34.9999 74.2424C52.5726 74.2424 66.8181 59.9969 66.8181 42.4242C66.8181 24.8516 52.5726 10.6061 34.9999 10.6061C17.4272 10.6061 3.18176 24.8516 3.18176 42.4242C3.18176 59.9969 17.4272 74.2424 34.9999 74.2424Z" fill="white"/>
</mask>
<g mask="url(#mask0)">
<path d="M34.9999 74.2424C52.5726 74.2424 66.8181 59.9969 66.8181 42.4242C66.8181 24.8516 52.5726 10.6061 34.9999 10.6061C17.4272 10.6061 3.18176 24.8516 3.18176 42.4242C3.18176 59.9969 17.4272 74.2424 34.9999 74.2424Z" fill="#E6E6E6"/>
<path d="M66.8181 10.6061H3.18176V74.2424H66.8181V10.6061Z" fill="#65C9FF"/>
</g>
<mask id="mask1" style="mask-type:alpha" maskUnits="userSpaceOnUse" x="0" y="0" width="70" height="75">
<path d="M3.18182 42.4242C3.18182 59.9969 17.4273 74.2424 35 74.2424C52.5727 74.2424 66.8182 59.9969 66.8182 42.4242H70V0H0V42.4242H3.18182Z" fill="white"/>
</mask>
<g mask="url(#mask1)">
<mask id="mask2" style="mask-type:alpha" maskUnits="userSpaceOnUse" x="8" y="9" width="54" height="66">
<path d="M41.3637 47.8893V52.7652H42.4243C52.9679 52.7652 61.5152 61.3124 61.5152 71.8561V74.2424H8.48486V71.8561C8.48486 61.3124 17.0322 52.7652 27.5758 52.7652H28.6364V47.8893C24.0659 45.7181 20.7805 41.2807 20.2324 36.0291C18.688 35.8108 17.5 34.4835 17.5 32.8788V29.1667C17.5 27.5901 18.6467 26.2813 20.1515 26.0288V24.3939C20.1515 16.1933 26.7994 9.54546 35 9.54546C43.2006 9.54546 49.8485 16.1933 49.8485 24.3939V26.0288C51.3534 26.2813 52.5 27.5901 52.5 29.1667V32.8788C52.5 34.4835 51.3121 35.8108 49.7676 36.0291C49.2195 41.2807 45.9342 45.7181 41.3637 47.8893Z" fill="white"/>
</mask>
<g mask="url(#mask2)">
<path d="M41.3637 47.8893V52.7652H42.4243C52.9679 52.7652 61.5152 61.3124 61.5152 71.8561V74.2424H8.48486V71.8561C8.48486 61.3124 17.0322 52.7652 27.5758 52.7652H28.6364V47.8893C24.0659 45.7181 20.7805 41.2807 20.2324 36.0291C18.688 35.8108 17.5 34.4835 17.5 32.8788V29.1667C17.5 27.5901 18.6467 26.2813 20.1515 26.0288V24.3939C20.1515 16.1933 26.7994 9.54546 35 9.54546C43.2006 9.54546 49.8485 16.1933 49.8485 24.3939V26.0288C51.3534 26.2813 52.5 27.5901 52.5 29.1667V32.8788C52.5 34.4835 51.3121 35.8108 49.7676 36.0291C49.2195 41.2807 45.9342 45.7181 41.3637 47.8893Z" fill="#D0C6AC"/>
<path d="M78.4849 9.54546H8.48486V83.7879H78.4849V9.54546Z" fill="#EDB98A"/>
<path fill-rule="evenodd" clip-rule="evenodd" d="M49.8485 30.4924V36.5909C49.8485 44.7915 43.2006 51.4394 35 51.4394C26.7994 51.4394 20.1515 44.7915 20.1515 36.5909V30.4924V34.4697C20.1515 42.6703 26.7994 49.3182 35 49.3182C43.2006 49.3182 49.8485 42.6703 49.8485 34.4697V30.4924Z" fill="black" fill-opacity="0.1"/>
</g>
<mask id="mask3" style="mask-type:alpha" maskUnits="userSpaceOnUse" x="8" y="52" width="54" height="23">
<path fill-rule="evenodd" clip-rule="evenodd" d="M44.0047 52.8434C53.8089 53.6468 61.5152 61.8583 61.5152 71.8698V74.2424H8.48486V71.8698C8.48486 61.7677 16.3312 53.4983 26.2621 52.8234C26.2541 52.9224 26.25 53.0221 26.25 53.1225C26.25 56.268 30.2269 58.8179 35.1326 58.8179C40.0383 58.8179 44.0152 56.268 44.0152 53.1225C44.0152 53.0289 44.0116 52.9358 44.0047 52.8434Z" fill="white"/>
</mask>
<g mask="url(#mask3)">
<path fill-rule="evenodd" clip-rule="evenodd" d="M44.0047 52.8434C53.8089 53.6468 61.5152 61.8583 61.5152 71.8698V74.2424H8.48486V71.8698C8.48486 61.7677 16.3312 53.4983 26.2621 52.8234C26.2541 52.9224 26.25 53.0221 26.25 53.1225C26.25 56.268 30.2269 58.8179 35.1326 58.8179C40.0383 58.8179 44.0152 56.268 44.0152 53.1225C44.0152 53.0289 44.0116 52.9358 44.0047 52.8434Z" fill="#E6E6E6"/>
<path d="M70 45.0758H0V74.2424H70V45.0758Z" fill="#262E33"/>
<g opacity="0.6">
<g opacity="0.6">
<path opacity="0.6" d="M35.1326 60.6565C40.9367 60.6565 45.6419 57.4615 45.6419 53.5202C45.6419 49.579 40.9367 46.384 35.1326 46.384C29.3285 46.384 24.6233 49.579 24.6233 53.5202C24.6233 57.4615 29.3285 60.6565 35.1326 60.6565Z" fill="black" fill-opacity="0.16"/>
</g>
</g>
</g>
<path fill-rule="evenodd" clip-rule="evenodd" d="M26.7233 52.7976C16.5752 53.2435 8.48486 61.6118 8.48486 71.8698H8.48486V74.2424H26.8762C25.9745 71.0394 25.4546 67.2713 25.4546 63.2386C25.4546 59.4398 25.9159 55.8757 26.7233 52.7976ZM43.389 74.2424H61.5152V71.8698C61.5152 61.7025 53.5672 53.3917 43.5455 52.8112C44.3506 55.8862 44.8106 59.4454 44.8106 63.2386C44.8106 67.2713 44.2907 71.0394 43.389 74.2424Z" fill="#3A4C5A"/>
<path fill-rule="evenodd" clip-rule="evenodd" d="M47.9924 67.8788L50.5262 65.9785C50.9088 65.6915 51.4362 65.6961 51.8137 65.9898L53.5606 67.3485L47.9924 67.8788Z" fill="#E6E6E6"/>
<path fill-rule="evenodd" clip-rule="evenodd" d="M26.7803 52.5C25.7197 57.6263 26.1616 64.8737 28.106 74.2424H23.8636L20.1515 64.697L21.7424 62.3106L20.1515 60.7197L25.1894 52.7652C25.727 52.5979 26.2573 52.5095 26.7803 52.5Z" fill="#2F4351"/>
<path fill-rule="evenodd" clip-rule="evenodd" d="M43.2197 52.5C44.2803 57.6263 43.8384 64.8737 41.894 74.2424H46.1364L49.8485 64.697L48.2576 62.3106L49.8485 60.7197L44.8106 52.7652C44.273 52.5979 43.7427 52.5095 43.2197 52.5Z" fill="#2F4351"/>
<g opacity="0.6">
<path opacity="0.6" fill-rule="evenodd" clip-rule="evenodd" d="M32.3989 39.8009C32.3531 38.4458 31.2327 37.3326 29.7747 37.1212C30.6673 37.6406 31.2826 38.5783 31.2826 39.6871C31.2826 41.1899 29.8313 42.4892 28.1528 42.4892C28.1371 42.4892 28.1215 42.4892 28.106 42.489H28.106C28.4659 42.6183 28.859 42.6894 29.2706 42.6894C30.6816 42.6894 31.8746 41.8534 32.2652 40.7044C32.9214 41.2761 33.903 41.6392 34.9999 41.6392C36.0968 41.6392 37.0784 41.2761 37.7346 40.7044C38.1252 41.8534 39.3182 42.6894 40.7292 42.6894C41.1408 42.6894 41.5339 42.6183 41.8938 42.489C41.8783 42.4892 41.8627 42.4892 41.847 42.4892C40.1685 42.4892 38.7172 41.1899 38.7172 39.6871C38.7172 38.5783 39.3325 37.6406 40.2251 37.1212C38.7671 37.3326 37.6467 38.4458 37.6009 39.8009C36.921 40.2612 36.0061 40.5432 34.9999 40.5432C33.9937 40.5432 33.0788 40.2612 32.3989 39.8009Z" fill="black" fill-opacity="0.6"/>
</g>
<path d="M25.1893 41.8939C26.5073 41.8939 27.5757 40.8255 27.5757 39.5076C27.5757 38.1896 26.5073 37.1212 25.1893 37.1212C23.8714 37.1212 22.803 38.1896 22.803 39.5076C22.803 40.8255 23.8714 41.8939 25.1893 41.8939Z" fill="#FF4646" fill-opacity="0.2"/>
<path d="M44.8106 41.8939C46.1285 41.8939 47.1969 40.8255 47.1969 39.5076C47.1969 38.1896 46.1285 37.1212 44.8106 37.1212C43.4926 37.1212 42.4242 38.1896 42.4242 39.5076C42.4242 40.8255 43.4926 41.8939 44.8106 41.8939Z" fill="#FF4646" fill-opacity="0.2"/>
<path fill-rule="evenodd" clip-rule="evenodd" d="M31.8182 34.4697C31.8182 35.6412 33.2428 36.5909 35.0001 36.5909C36.7573 36.5909 38.1819 35.6412 38.1819 34.4697" fill="black" fill-opacity="0.16"/>
<path d="M28.1062 31.2879C28.9848 31.2879 29.6971 30.5756 29.6971 29.697C29.6971 28.8183 28.9848 28.1061 28.1062 28.1061C27.2275 28.1061 26.5153 28.8183 26.5153 29.697C26.5153 30.5756 27.2275 31.2879 28.1062 31.2879Z" fill="black" fill-opacity="0.6"/>
<path d="M26.7804 31.0227C26.7804 31.0227 25.1895 32.9506 25.1895 34.0112C25.1895 34.8899 25.9016 35.6021 26.7804 35.6021C27.6591 35.6021 28.3713 34.8899 28.3713 34.0112C28.3713 32.9506 26.7804 31.0227 26.7804 31.0227Z" fill="#92D9FF"/>
<path d="M41.894 31.2879C42.7726 31.2879 43.4849 30.5756 43.4849 29.697C43.4849 28.8183 42.7726 28.1061 41.894 28.1061C41.0154 28.1061 40.3031 28.8183 40.3031 29.697C40.3031 30.5756 41.0154 31.2879 41.894 31.2879Z" fill="black" fill-opacity="0.6"/>
<path fill-rule="evenodd" clip-rule="evenodd" d="M30.4022 24.683C29.077 24.779 27.7712 24.7057 26.4468 24.6507C25.4313 24.6087 24.4005 24.47 23.431 24.919C23.2454 25.0049 22.2299 25.5233 22.2535 25.8069C22.2723 26.0337 23.297 26.388 23.4815 26.4528C24.4542 26.795 25.3854 26.6903 26.3859 26.6303C27.613 26.5568 28.8346 26.6108 30.0612 26.5739C30.8871 26.5491 32.1603 26.4092 32.5685 25.4077C32.6915 25.1061 32.5964 24.5026 32.4732 24.1728C32.4241 24.0413 32.2821 23.9918 32.1748 24.0676C31.7905 24.3388 31.0449 24.6366 30.4022 24.683Z" fill="black" fill-opacity="0.6"/>
<path fill-rule="evenodd" clip-rule="evenodd" d="M39.5978 24.683C40.923 24.779 42.2288 24.7057 43.5532 24.6507C44.5687 24.6087 45.5995 24.47 46.569 24.919C46.7546 25.0049 47.7701 25.5233 47.7465 25.8069C47.7277 26.0337 46.703 26.388 46.5185 26.4528C45.5458 26.795 44.6146 26.6903 43.6141 26.6303C42.387 26.5568 41.1654 26.6108 39.9388 26.5739C39.1129 26.5491 37.8397 26.4092 37.4315 25.4077C37.3085 25.1061 37.4036 24.5026 37.5268 24.1728C37.5759 24.0413 37.7179 23.9918 37.8252 24.0676C38.2095 24.3388 38.9551 24.6366 39.5978 24.683Z" fill="black" fill-opacity="0.6"/>
<mask id="mask4" style="mask-type:alpha" maskUnits="userSpaceOnUse" x="0" y="0" width="70" height="75">
<path d="M70 0H0V74.2424H70V0Z" fill="white"/>
</mask>
<g mask="url(#mask4)">
<mask id="mask5" style="mask-type:alpha" maskUnits="userSpaceOnUse" x="3" y="3" width="65" height="71">
<path fill-rule="evenodd" clip-rule="evenodd" d="M26.7055 52.7846C26.994 52.7717 27.2841 52.7652 27.5757 52.7652H28.6363V47.8893C25.5151 46.4065 22.9933 43.867 21.5332 40.733C20.8002 38.4506 20.8439 35.9776 20.682 33.6282C20.4685 30.5311 20.6523 27.509 21.3544 24.4596C21.988 21.7086 22.8987 20.2329 24.9675 18.0283C26.1233 16.7965 27.8589 16.7252 29.5863 16.2881C31.3345 15.8454 32.9303 15.1717 34.0236 13.9042C36.432 16.6648 42.8674 15.6713 45.2227 18.6798C48.0867 22.3383 48.1187 24.6988 48.4557 28.9259C48.7083 32.0948 48.3156 37.8255 48.2055 41.2656C46.7158 44.1544 44.306 46.4915 41.3636 47.8893V52.7652H42.4242C44.1837 52.7652 45.8875 53.0032 47.5054 53.4488C46.9618 54.2903 46.3138 55.0871 45.6357 55.828C44.6198 56.9383 43.599 58.0868 42.4538 59.107C41.1437 60.2741 39.8904 61.1213 39.095 62.5758C38.735 63.234 38.1041 63.9263 38.7717 64.6485C39.3813 65.3079 40.3425 65.172 40.995 64.695C41.9594 63.9897 42.6754 62.8764 43.5642 62.0658C42.7058 63.6077 41.5115 65.9064 42.1247 67.6353C42.3333 68.2232 42.545 68.2115 42.8674 68.6033C43.3764 68.6148 43.5776 68.8451 43.4711 69.2941C43.5188 69.4225 43.5665 69.5506 43.6144 69.6789C44.0004 70.3667 44.7391 70.8484 45.6772 70.5242C48.7424 69.4651 45.2065 64.7011 48.5813 63.285C49.1852 64.0352 48.2933 66.143 48.2693 67.065C48.2397 68.2018 48.3016 70.7805 50.0303 71.0897C52.2831 71.4929 51.4142 69.3406 51.5031 68.425C51.6064 67.3601 52.2616 65.9559 52.7947 65.0129C52.4705 66.0149 51.8644 68.2353 53.5414 68.6904C55.4816 69.2169 55.26 66.9442 55.5544 65.9989C55.6151 67.3977 57.4225 70.7052 59.0557 68.0927C59.8973 66.7467 59.3232 64.5289 59.231 63.0937C60.4013 64.3027 61.3363 62.7355 61.3094 61.8659C61.7543 63.126 63.4261 66.6393 64.9077 63.8505C65.8086 62.1548 64.8478 59.8772 64.2492 58.2401C65.8253 58.378 65.5087 56.8516 65.2739 56.0936C64.9275 54.9743 65.1124 54.81 65.1837 53.6526C67.3712 54.9267 67.3042 51.4695 67.1834 50.6215C66.8798 48.4866 65.219 46.5748 63.9373 44.7742C63.0183 43.4827 61.3031 41.2339 61.8059 39.6764C62.3247 40.3309 63.5313 40.324 64.011 39.6388C64.4171 39.0586 63.9868 38.102 63.7908 37.5224C63.2549 35.9367 62.1841 34.9122 61.216 33.5502C59.3313 30.8984 59.6024 27.4164 59.4282 24.452C59.2108 20.7535 58.4168 17.1126 55.0583 14.4221C53.2588 12.9806 51.0657 11.7935 49.392 10.2641C48.9356 9.847 48.7426 9.33029 48.3141 8.92825C47.8332 8.47706 47.6088 8.58391 47.2116 7.9416C46.5041 6.79762 45.673 5.72648 43.9632 5.67275C42.8445 5.63778 41.4296 6.58188 40.4213 6.4439C39.5935 6.3308 39.0706 5.1504 38.3912 4.75425C37.3397 4.14104 36.6058 4.37913 35.482 4.7343C33.8091 5.2629 32.743 5.44715 31.0394 4.81531C29.88 4.38526 28.786 3.48768 27.4171 3.80678C26.3434 4.05726 25.8638 4.92384 25.2313 5.58802C24.5788 6.27371 24.8941 6.04703 23.9401 6.19931C22.9643 6.3552 22.1937 6.49666 21.4534 7.13572C20.2569 8.16865 21.0858 9.77524 20.1401 10.6858C19.6296 11.1774 18.5664 11.4115 17.9752 11.9198C17.3298 12.4746 16.802 13.1489 16.3185 13.8053C15.3768 15.084 14.7338 16.4775 14.0435 17.8569C12.7592 20.424 11.6143 23.0727 11.1263 25.8306C10.8757 27.2482 10.4532 28.6349 10.1951 30.0497C9.99609 31.1407 10.081 32.3356 9.69228 33.395C9.23108 34.6517 8.12825 35.8068 7.53086 37.0428C6.73862 38.6822 6.20652 40.255 6.03804 42.0199C5.87258 43.7551 6.33306 45.2842 6.53612 46.9854C6.65373 47.971 6.45037 48.0828 5.77256 49.013C5.25098 49.7289 4.72262 50.4376 4.38725 51.2345C3.76103 52.7232 3.79577 54.1716 4.88534 55.4804C5.63305 56.3786 8.14641 57.3187 7.9406 55.3166C7.84505 54.3864 6.67549 53.9656 6.89888 52.8984C7.05353 52.1594 7.80686 51.648 8.72132 51.4195C9.36728 51.2582 9.68536 51.2653 9.97678 51.9736C10.241 52.6155 9.89074 54.0171 9.80959 54.6917C9.77702 54.9628 9.72888 55.2005 9.69617 55.4515C9.466 57.2214 9.42363 58.8497 8.45484 60.4748C7.85975 61.4734 6.69538 62.8804 8.02304 63.8428C9.07284 64.604 10.8842 64.1402 11.7027 63.3438C12.5661 64.4116 12.3741 65.5773 12.0511 66.756C11.8507 67.4879 11.3024 68.5596 12.1654 69.1512C13.3341 69.9524 15.2419 68.6905 16.1182 68.0537C16.6247 69.1851 17.1001 73.3106 19.0973 70.8514C19.6802 70.1341 20.6504 69.4345 20.8352 68.5887C21.1417 67.1859 20.9216 65.7095 21.0486 64.2926C21.6859 66.148 22.1192 66.8877 22.5093 68.7922C22.744 69.938 22.8359 73.7822 25.207 73.2759C27.0315 72.8863 25.8647 70.4855 25.6316 69.5068C25.1853 67.6324 24.9699 66.8387 24.5385 64.962C25.2102 66.1886 25.797 67.447 26.4423 68.6833C27.0761 69.8976 29.9101 72.4025 30.7392 71.3479C31.5682 70.2933 29.5471 68.7906 29.0874 67.5138C28.1305 64.856 26.9712 62.2094 26.6964 59.4248C26.5642 58.086 26.8121 56.8496 26.9208 55.5263C26.9949 54.6222 26.8833 53.696 26.7055 52.7846Z" fill="white"/>
</mask>
<g mask="url(#mask5)">
<path fill-rule="evenodd" clip-rule="evenodd" d="M26.7055 52.7846C26.994 52.7717 27.2841 52.7652 27.5757 52.7652H28.6363V47.8893C25.5151 46.4065 22.9933 43.867 21.5332 40.733C20.8002 38.4506 20.8439 35.9776 20.682 33.6282C20.4685 30.5311 20.6523 27.509 21.3544 24.4596C21.988 21.7086 22.8987 20.2329 24.9675 18.0283C26.1233 16.7965 27.8589 16.7252 29.5863 16.2881C31.3345 15.8454 32.9303 15.1717 34.0236 13.9042C36.432 16.6648 42.8674 15.6713 45.2227 18.6798C48.0867 22.3383 48.1187 24.6988 48.4557 28.9259C48.7083 32.0948 48.3156 37.8255 48.2055 41.2656C46.7158 44.1544 44.306 46.4915 41.3636 47.8893V52.7652H42.4242C44.1837 52.7652 45.8875 53.0032 47.5054 53.4488C46.9618 54.2903 46.3138 55.0871 45.6357 55.828C44.6198 56.9383 43.599 58.0868 42.4538 59.107C41.1437 60.2741 39.8904 61.1213 39.095 62.5758C38.735 63.234 38.1041 63.9263 38.7717 64.6485C39.3813 65.3079 40.3425 65.172 40.995 64.695C41.9594 63.9897 42.6754 62.8764 43.5642 62.0658C42.7058 63.6077 41.5115 65.9064 42.1247 67.6353C42.3333 68.2232 42.545 68.2115 42.8674 68.6033C43.3764 68.6148 43.5776 68.8451 43.4711 69.2941C43.5188 69.4225 43.5665 69.5506 43.6144 69.6789C44.0004 70.3667 44.7391 70.8484 45.6772 70.5242C48.7424 69.4651 45.2065 64.7011 48.5813 63.285C49.1852 64.0352 48.2933 66.143 48.2693 67.065C48.2397 68.2018 48.3016 70.7805 50.0303 71.0897C52.2831 71.4929 51.4142 69.3406 51.5031 68.425C51.6064 67.3601 52.2616 65.9559 52.7947 65.0129C52.4705 66.0149 51.8644 68.2353 53.5414 68.6904C55.4816 69.2169 55.26 66.9442 55.5544 65.9989C55.6151 67.3977 57.4225 70.7052 59.0557 68.0927C59.8973 66.7467 59.3232 64.5289 59.231 63.0937C60.4013 64.3027 61.3363 62.7355 61.3094 61.8659C61.7543 63.126 63.4261 66.6393 64.9077 63.8505C65.8086 62.1548 64.8478 59.8772 64.2492 58.2401C65.8253 58.378 65.5087 56.8516 65.2739 56.0936C64.9275 54.9743 65.1124 54.81 65.1837 53.6526C67.3712 54.9267 67.3042 51.4695 67.1834 50.6215C66.8798 48.4866 65.219 46.5748 63.9373 44.7742C63.0183 43.4827 61.3031 41.2339 61.8059 39.6764C62.3247 40.3309 63.5313 40.324 64.011 39.6388C64.4171 39.0586 63.9868 38.102 63.7908 37.5224C63.2549 35.9367 62.1841 34.9122 61.216 33.5502C59.3313 30.8984 59.6024 27.4164 59.4282 24.452C59.2108 20.7535 58.4168 17.1126 55.0583 14.4221C53.2588 12.9806 51.0657 11.7935 49.392 10.2641C48.9356 9.847 48.7426 9.33029 48.3141 8.92825C47.8332 8.47706 47.6088 8.58391 47.2116 7.9416C46.5041 6.79762 45.673 5.72648 43.9632 5.67275C42.8445 5.63778 41.4296 6.58188 40.4213 6.4439C39.5935 6.3308 39.0706 5.1504 38.3912 4.75425C37.3397 4.14104 36.6058 4.37913 35.482 4.7343C33.8091 5.2629 32.743 5.44715 31.0394 4.81531C29.88 4.38526 28.786 3.48768 27.4171 3.80678C26.3434 4.05726 25.8638 4.92384 25.2313 5.58802C24.5788 6.27371 24.8941 6.04703 23.9401 6.19931C22.9643 6.3552 22.1937 6.49666 21.4534 7.13572C20.2569 8.16865 21.0858 9.77524 20.1401 10.6858C19.6296 11.1774 18.5664 11.4115 17.9752 11.9198C17.3298 12.4746 16.802 13.1489 16.3185 13.8053C15.3768 15.084 14.7338 16.4775 14.0435 17.8569C12.7592 20.424 11.6143 23.0727 11.1263 25.8306C10.8757 27.2482 10.4532 28.6349 10.1951 30.0497C9.99609 31.1407 10.081 32.3356 9.69228 33.395C9.23108 34.6517 8.12825 35.8068 7.53086 37.0428C6.73862 38.6822 6.20652 40.255 6.03804 42.0199C5.87258 43.7551 6.33306 45.2842 6.53612 46.9854C6.65373 47.971 6.45037 48.0828 5.77256 49.013C5.25098 49.7289 4.72262 50.4376 4.38725 51.2345C3.76103 52.7232 3.79577 54.1716 4.88534 55.4804C5.63305 56.3786 8.14641 57.3187 7.9406 55.3166C7.84505 54.3864 6.67549 53.9656 6.89888 52.8984C7.05353 52.1594 7.80686 51.648 8.72132 51.4195C9.36728 51.2582 9.68536 51.2653 9.97678 51.9736C10.241 52.6155 9.89074 54.0171 9.80959 54.6917C9.77702 54.9628 9.72888 55.2005 9.69617 55.4515C9.466 57.2214 9.42363 58.8497 8.45484 60.4748C7.85975 61.4734 6.69538 62.8804 8.02304 63.8428C9.07284 64.604 10.8842 64.1402 11.7027 63.3438C12.5661 64.4116 12.3741 65.5773 12.0511 66.756C11.8507 67.4879 11.3024 68.5596 12.1654 69.1512C13.3341 69.9524 15.2419 68.6905 16.1182 68.0537C16.6247 69.1851 17.1001 73.3106 19.0973 70.8514C19.6802 70.1341 20.6504 69.4345 20.8352 68.5887C21.1417 67.1859 20.9216 65.7095 21.0486 64.2926C21.6859 66.148 22.1192 66.8877 22.5093 68.7922C22.744 69.938 22.8359 73.7822 25.207 73.2759C27.0315 72.8863 25.8647 70.4855 25.6316 69.5068C25.1853 67.6324 24.9699 66.8387 24.5385 64.962C25.2102 66.1886 25.797 67.447 26.4423 68.6833C27.0761 69.8976 29.9101 72.4025 30.7392 71.3479C31.5682 70.2933 29.5471 68.7906 29.0874 67.5138C28.1305 64.856 26.9712 62.2094 26.6964 59.4248C26.5642 58.086 26.8121 56.8496 26.9208 55.5263C26.9949 54.6222 26.8833 53.696 26.7055 52.7846Z" fill="#8D5A5A"/>
<path d="M73.9773 3.71211H3.97729V77.9545H73.9773V3.71211Z" fill="#724133"/>
<path fill-rule="evenodd" clip-rule="evenodd" d="M26.7055 52.7846C26.994 52.7717 27.2841 52.7652 27.5757 52.7652H28.6363V47.8893C25.5151 46.4066 22.9933 43.867 21.5332 40.733C21.6744 41.1728 21.8445 41.6055 22.0504 42.0289C23.5764 45.1664 25.5654 47.9714 26.3793 51.3307C26.4948 51.8072 26.6097 52.2938 26.7055 52.7846ZM47.5054 53.4488C45.8875 53.0032 44.1837 52.7652 42.4242 52.7652H41.3636V47.8893C44.2539 46.5162 46.6303 44.2369 48.1255 41.4185C48.105 42.2123 48.1229 43.0019 48.2243 43.7647C48.5081 45.8977 49.2854 47.8243 48.9246 50.0171C48.7271 51.2187 48.2019 52.3705 47.5054 53.4488Z" fill="black" fill-opacity="0.24"/>
<path fill-rule="evenodd" clip-rule="evenodd" d="M17.0654 32.4143C17.0322 31.7721 16.5403 29.6204 17.1523 29.2487C17.823 28.841 17.6832 31.2921 17.6901 31.5432C17.7017 31.9508 18.0113 35.026 17.4443 35.0124C16.879 34.9989 17.0871 32.8333 17.0654 32.4143ZM19.3017 47.7269C19.2994 47.9957 19.0174 47.9794 18.816 47.9091C18.5674 47.8222 18.7196 47.2504 18.7065 47.063C18.6719 46.57 18.4353 45.1173 18.7967 44.7103C19.5194 43.8967 19.3046 47.3481 19.3017 47.7269ZM12.4942 51.2171C13.0057 51.2026 12.5323 41.1859 11.7461 41.197C11.194 41.2048 12.1071 51.2268 12.4942 51.2171ZM13.0861 56.349C12.4503 56.349 12.5672 58.5928 12.9417 58.7721C13.5091 59.0439 13.7972 56.349 13.0861 56.349ZM17.1261 57.2873C17.1317 57.5678 16.8136 57.5722 16.6014 57.4845C16.3604 57.3849 16.4613 56.5551 16.4518 56.3708C16.4218 55.7909 15.9171 53.5412 16.3761 53.1278C16.8995 52.6565 16.9109 53.1738 17.0517 53.5251C17.4664 54.5599 17.1038 56.1852 17.1261 57.2873ZM54.4203 36.149C54.4495 36.5367 54.7037 39.0703 54.2813 39.2634C53.5542 39.5959 53.8673 38.0303 53.8702 37.8282C53.8986 35.8562 53.6134 33.9008 53.3965 31.9393C53.3553 31.5669 52.7004 28.6978 53.18 28.4601C53.8979 28.1044 53.7908 29.0556 53.8319 29.3643C54.1312 31.6097 54.2635 33.8929 54.4203 36.149ZM53.5667 44.9663C52.8953 44.8333 52.5439 47.1124 52.8503 47.3568C53.3586 47.7625 54.2686 45.1058 53.5667 44.9663ZM53.4956 54.9885C53.1937 54.9284 50.9944 59.16 51.1754 59.3993C51.52 59.855 54.5771 55.2045 53.4956 54.9885ZM48.0806 56.9436C47.6083 56.7309 45.6057 59.7943 46.1169 60.0244C46.5804 60.2328 48.6522 57.2 48.0806 56.9436ZM59.2416 45.4595C58.6713 45.4595 58.6966 48.5941 59.1355 48.7919C59.5892 48.9963 59.9156 45.4595 59.2416 45.4595ZM51.2113 16.6631C51.05 16.4324 49.3088 14.3774 50.5559 14.671C51.1634 14.814 52.0005 16.6206 52.2745 17.1663C52.432 17.4797 53.3309 18.879 52.3784 18.7799C52.1193 18.7531 51.4266 16.9714 51.2113 16.6631ZM45.0884 12.5567C44.864 12.6576 44.8678 12.7524 45.0997 12.8408C45.3242 12.7398 45.3203 12.6452 45.0884 12.5567ZM22.702 14.7123C22.1703 15.2011 20.1716 18.0316 19.4868 18.0599C18.2388 18.1116 20.6211 15.667 20.8914 15.3559C21.012 15.2164 21.5505 14.5362 21.8782 14.3689C22.2126 14.1982 23.3216 14.1411 22.702 14.7123ZM15.4462 22.2676C14.8674 22.1539 13.899 24.9893 14.2368 25.3315C14.7469 25.8485 16.0949 22.3963 15.4462 22.2676ZM22.0587 53.8237C22.1681 54.1793 23.2868 56.7615 23.0056 57.1012C22.5757 57.6203 22.4523 56.8847 22.3117 56.5796C21.9994 55.9021 21.1879 54.2341 21.3184 53.5209C21.4451 52.8293 21.9482 53.4675 22.0587 53.8237ZM19.8827 59.8755C19.2742 59.8755 19.3444 62.4745 19.7068 62.629C20.268 62.8682 20.6291 59.8755 19.8827 59.8755ZM62.7855 57.6563C62.8217 57.8163 63.3302 59.1313 62.6098 58.9408C62.1956 58.8313 62.1318 57.6721 62.026 57.3207C61.7001 56.2373 60.626 54.8912 60.5327 53.8222C60.4427 52.7891 61.0207 53.1828 61.4648 54.0579C62.0577 55.2266 62.5023 56.4101 62.7855 57.6563ZM57.5615 57.5249C56.9963 57.5223 56.9689 60.3814 57.3224 60.5481C57.8166 60.7811 58.2825 57.5249 57.5615 57.5249ZM59.195 34.1129C59.6144 34.0036 58.2909 30.5796 57.8221 30.6173C57.1077 30.675 58.5581 34.2771 59.195 34.1129ZM52.0848 48.9859C51.8603 49.0869 51.8642 49.1816 52.0961 49.2701C52.3205 49.1691 52.3167 49.0743 52.0848 48.9859ZM45.6634 63.6331C45.8738 63.6331 45.9607 63.3086 45.6498 63.3013C45.4443 63.303 45.3358 63.6331 45.6634 63.6331ZM19.5376 48.9546C19.5453 48.4485 18.8828 48.8196 18.887 49.2467C18.8956 50.0988 19.5236 49.7097 19.5376 48.9546ZM17.9027 36.2948C17.6896 36.2948 17.6022 36.6226 17.9163 36.6304C18.1241 36.6288 18.2338 36.2948 17.9027 36.2948ZM12.8298 52.8693C12.8092 52.3546 12.379 52.8808 12.403 52.8815C12.4794 52.8834 12.8459 53.2573 12.8298 52.8693ZM13.9469 26.0016C13.3191 26.0016 13.4102 27.5272 13.8108 27.6251C14.479 27.7884 14.5704 26.0016 13.9469 26.0016ZM17.2913 58.9501C16.6853 58.9501 16.6444 61.0219 17.0626 61.1508C17.7125 61.3507 17.9224 58.9501 17.2913 58.9501ZM12.3181 60.4366C12.0869 60.5403 12.0907 60.6379 12.3293 60.7291C12.5607 60.6254 12.5568 60.528 12.3181 60.4366ZM57.3935 61.325C56.7784 61.325 56.8025 63.8581 57.1801 64.0292C57.7079 64.2685 58.1051 61.325 57.3935 61.325ZM51.1598 63.6792C50.5206 63.5514 50.1859 65.6428 50.4838 65.8774C50.9749 66.2642 51.8163 63.8103 51.1598 63.6792ZM45.7294 65.6121C45.1997 65.6121 45.3299 66.5599 45.6354 66.701C46.1642 66.945 46.3204 65.6121 45.7294 65.6121ZM26.9075 8.88499C26.4643 8.88499 23.6831 10.1429 24.7226 10.5156C25.358 10.7434 28.0364 8.88499 26.9075 8.88499Z" fill="white" fill-opacity="0.3"/>
</g>
<g filter="url(#filter0_d)">
<path fill-rule="evenodd" clip-rule="evenodd" d="M37.5095 26.8848C38.5477 24.7807 40.7147 23.3333 43.2197 23.3333C45.5847 23.3333 47.6484 24.6235 48.7454 26.5385C48.8011 26.5233 48.8598 26.5151 48.9204 26.5151H51.0416C51.4077 26.5151 51.7045 26.8119 51.7045 27.178C51.7045 27.5441 51.4077 27.8409 51.0416 27.8409H49.3084C49.4871 28.4281 49.5833 29.0513 49.5833 29.697C49.5833 33.2115 46.7342 36.0606 43.2197 36.0606C39.7051 36.0606 36.856 33.2115 36.856 29.697C36.856 29.32 36.8888 28.9506 36.9517 28.5916C36.9293 27.4313 36.0377 26.5151 34.9635 26.5151C33.9727 26.5151 33.1372 27.2946 32.9959 28.3262C33.0928 28.7677 33.1439 29.2263 33.1439 29.697C33.1439 33.2115 30.2948 36.0606 26.7803 36.0606C23.2657 36.0606 20.4166 33.2115 20.4166 29.697C20.4166 29.0513 20.5128 28.4281 20.6916 27.8409H18.9583C18.5922 27.8409 18.2954 27.5441 18.2954 27.178C18.2954 26.8119 18.5922 26.5151 18.9583 26.5151H21.0795C21.1401 26.5151 21.1988 26.5233 21.2545 26.5385C22.3515 24.6235 24.4152 23.3333 26.7803 23.3333C29.26 23.3333 31.4085 24.7517 32.4587 26.8214C33.0094 25.9953 33.9259 25.4545 34.9635 25.4545C36.0273 25.4545 36.9639 26.023 37.5095 26.8848ZM26.7803 35C29.709 35 32.0833 32.6258 32.0833 29.697C32.0833 26.7682 29.709 24.3939 26.7803 24.3939C23.8515 24.3939 21.4772 26.7682 21.4772 29.697C21.4772 32.6258 23.8515 35 26.7803 35ZM43.2197 35C46.1484 35 48.5227 32.6258 48.5227 29.697C48.5227 26.7682 46.1484 24.3939 43.2197 24.3939C40.2909 24.3939 37.9166 26.7682 37.9166 29.697C37.9166 32.6258 40.2909 35 43.2197 35Z" fill="black"/>
</g>
<path fill-rule="evenodd" clip-rule="evenodd" d="M37.5095 26.8848C38.5477 24.7807 40.7147 23.3333 43.2197 23.3333C45.5847 23.3333 47.6484 24.6235 48.7454 26.5385C48.8011 26.5233 48.8598 26.5151 48.9204 26.5151H51.0416C51.4077 26.5151 51.7045 26.8119 51.7045 27.178C51.7045 27.5441 51.4077 27.8409 51.0416 27.8409H49.3084C49.4871 28.4281 49.5833 29.0513 49.5833 29.697C49.5833 33.2115 46.7342 36.0606 43.2197 36.0606C39.7051 36.0606 36.856 33.2115 36.856 29.697C36.856 29.32 36.8888 28.9506 36.9517 28.5916C36.9293 27.4313 36.0377 26.5151 34.9635 26.5151C33.9727 26.5151 33.1372 27.2946 32.9959 28.3262C33.0928 28.7677 33.1439 29.2263 33.1439 29.697C33.1439 33.2115 30.2948 36.0606 26.7803 36.0606C23.2657 36.0606 20.4166 33.2115 20.4166 29.697C20.4166 29.0513 20.5128 28.4281 20.6916 27.8409H18.9583C18.5922 27.8409 18.2954 27.5441 18.2954 27.178C18.2954 26.8119 18.5922 26.5151 18.9583 26.5151H21.0795C21.1401 26.5151 21.1988 26.5233 21.2545 26.5385C22.3515 24.6235 24.4152 23.3333 26.7803 23.3333C29.26 23.3333 31.4085 24.7517 32.4587 26.8214C33.0094 25.9953 33.9259 25.4545 34.9635 25.4545C36.0273 25.4545 36.9639 26.023 37.5095 26.8848ZM26.7803 35C29.709 35 32.0833 32.6258 32.0833 29.697C32.0833 26.7682 29.709 24.3939 26.7803 24.3939C23.8515 24.3939 21.4772 26.7682 21.4772 29.697C21.4772 32.6258 23.8515 35 26.7803 35ZM43.2197 35C46.1484 35 48.5227 32.6258 48.5227 29.697C48.5227 26.7682 46.1484 24.3939 43.2197 24.3939C40.2909 24.3939 37.9166 26.7682 37.9166 29.697C37.9166 32.6258 40.2909 35 43.2197 35Z" fill="#252C2F"/>
</g>
</g>
</g>
<defs>
<filter id="filter0_d" x="14.2954" y="21.3333" width="41.4091" height="20.7273" filterUnits="userSpaceOnUse" color-interpolation-filters="sRGB">
<feFlood flood-opacity="0" result="BackgroundImageFix"/>
<feColorMatrix in="SourceAlpha" type="matrix" values="0 0 0 0 0 0 0 0 0 0 0 0 0 0 0 0 0 0 127 0" result="hardAlpha"/>
<feOffset dy="2"/>
<feGaussianBlur stdDeviation="2"/>
<feColorMatrix type="matrix" values="0 0 0 0 0 0 0 0 0 0 0 0 0 0 0 0 0 0 0.1 0"/>
<feBlend mode="normal" in2="BackgroundImageFix" result="effect1_dropShadow"/>
<feBlend mode="normal" in="SourceGraphic" in2="effect1_dropShadow" result="shape"/>
</filter>
<clipPath id="clip0">
<rect width="70" height="74.2424" fill="white"/>
</clipPath>
</defs>
</svg>
