<svg width="70" height="75" viewBox="0 0 70 75" fill="none" xmlns="http://www.w3.org/2000/svg">
<g clip-path="url(#clip0)">
<mask id="mask0" style="mask-type:alpha" maskUnits="userSpaceOnUse" x="3" y="10" width="64" height="65">
<path d="M35 74.2423C52.5727 74.2423 66.8182 59.9968 66.8182 42.4242C66.8182 24.8515 52.5727 10.606 35 10.606C17.4273 10.606 3.18176 24.8515 3.18176 42.4242C3.18176 59.9968 17.4273 74.2423 35 74.2423Z" fill="white"/>
</mask>
<g mask="url(#mask0)">
<path d="M35 74.2423C52.5727 74.2423 66.8182 59.9968 66.8182 42.4242C66.8182 24.8515 52.5727 10.606 35 10.606C17.4273 10.606 3.18176 24.8515 3.18176 42.4242C3.18176 59.9968 17.4273 74.2423 35 74.2423Z" fill="#E6E6E6"/>
<path d="M66.8182 10.606H3.18176V74.2423H66.8182V10.606Z" fill="#65C9FF"/>
</g>
<mask id="mask1" style="mask-type:alpha" maskUnits="userSpaceOnUse" x="0" y="0" width="70" height="75">
<path d="M3.18182 42.4242C3.18182 59.9968 17.4273 74.2423 35 74.2423C52.5727 74.2423 66.8182 59.9968 66.8182 42.4242H70V0H0V42.4242H3.18182Z" fill="white"/>
</mask>
<g mask="url(#mask1)">
<mask id="mask2" style="mask-type:alpha" maskUnits="userSpaceOnUse" x="8" y="9" width="54" height="66">
<path d="M41.3637 47.8892V52.7651H42.4243C52.9679 52.7651 61.5152 61.3123 61.5152 71.8559V74.2423H8.48486V71.8559C8.48486 61.3123 17.0322 52.7651 27.5758 52.7651H28.6364V47.8892C24.0659 45.718 20.7805 41.2806 20.2325 36.0291C18.688 35.8107 17.5 34.4835 17.5 32.8787V29.1666C17.5 27.59 18.6467 26.2813 20.1515 26.0288V24.3939C20.1515 16.1933 26.7994 9.54544 35 9.54544C43.2006 9.54544 49.8485 16.1933 49.8485 24.3939V26.0288C51.3534 26.2813 52.5001 27.59 52.5001 29.1666V32.8787C52.5001 34.4835 51.3121 35.8107 49.7676 36.0291C49.2195 41.2806 45.9342 45.718 41.3637 47.8892Z" fill="white"/>
</mask>
<g mask="url(#mask2)">
<path d="M41.3637 47.8892V52.7651H42.4243C52.9679 52.7651 61.5152 61.3123 61.5152 71.8559V74.2423H8.48486V71.8559C8.48486 61.3123 17.0322 52.7651 27.5758 52.7651H28.6364V47.8892C24.0659 45.718 20.7805 41.2806 20.2325 36.0291C18.688 35.8107 17.5 34.4835 17.5 32.8787V29.1666C17.5 27.59 18.6467 26.2813 20.1515 26.0288V24.3939C20.1515 16.1933 26.7994 9.54544 35 9.54544C43.2006 9.54544 49.8485 16.1933 49.8485 24.3939V26.0288C51.3534 26.2813 52.5001 27.59 52.5001 29.1666V32.8787C52.5001 34.4835 51.3121 35.8107 49.7676 36.0291C49.2195 41.2806 45.9342 45.718 41.3637 47.8892Z" fill="#D0C6AC"/>
<path d="M78.4849 9.54544H8.48486V83.7877H78.4849V9.54544Z" fill="#D08B5B"/>
<path fill-rule="evenodd" clip-rule="evenodd" d="M49.8485 30.4923V36.5908C49.8485 44.7914 43.2006 51.4393 35 51.4393C26.7994 51.4393 20.1515 44.7914 20.1515 36.5908V30.4923V34.4696C20.1515 42.6702 26.7994 49.3181 35 49.3181C43.2006 49.3181 49.8485 42.6702 49.8485 34.4696V30.4923Z" fill="black" fill-opacity="0.1"/>
</g>
<mask id="mask3" style="mask-type:alpha" maskUnits="userSpaceOnUse" x="8" y="52" width="54" height="23">
<path fill-rule="evenodd" clip-rule="evenodd" d="M27.892 52.7788H27.5758C17.0322 52.7788 8.48486 61.3261 8.48486 71.8696V74.2423H61.5152V71.8696C61.5152 61.3261 52.9679 52.7788 42.4243 52.7788H42.1081C42.1418 53.0396 42.1591 53.3051 42.1591 53.5743C42.1591 57.2352 38.9539 60.203 35 60.203C31.0462 60.203 27.8409 57.2352 27.8409 53.5743C27.8409 53.3051 27.8583 53.0396 27.892 52.7788Z" fill="white"/>
</mask>
<g mask="url(#mask3)">
<path fill-rule="evenodd" clip-rule="evenodd" d="M27.892 52.7788H27.5758C17.0322 52.7788 8.48486 61.3261 8.48486 71.8696V74.2423H61.5152V71.8696C61.5152 61.3261 52.9679 52.7788 42.4243 52.7788H42.1081C42.1418 53.0396 42.1591 53.3051 42.1591 53.5743C42.1591 57.2352 38.9539 60.203 35 60.203C31.0462 60.203 27.8409 57.2352 27.8409 53.5743C27.8409 53.3051 27.8583 53.0396 27.892 52.7788Z" fill="#E6E6E6"/>
<path d="M70 45.0757H0V74.2423H70V45.0757Z" fill="#FFDEB5"/>
<path fill-rule="evenodd" clip-rule="evenodd" d="M41.3636 50.9831C43.0027 52.1911 44.0151 53.8537 44.0151 55.6891C44.0151 57.5997 42.9181 59.3231 41.1592 60.5412L39.6612 59.3611L38.447 59.449L38.7121 58.6135L38.6915 58.5972C40.309 57.764 41.3636 56.3977 41.3636 54.8536V50.9831ZM28.6364 50.7954C26.842 52.0158 25.7197 53.7567 25.7197 55.6891C25.7197 57.6508 26.8762 59.4151 28.7182 60.6378L30.3388 59.3611L31.553 59.449L31.2879 58.6135L31.3085 58.5972C29.691 57.764 28.6364 56.3977 28.6364 54.8536V50.7954Z" fill="#F2F2F2"/>
</g>
<path fill-rule="evenodd" clip-rule="evenodd" d="M31.2878 39.5075C31.2878 41.5576 32.9498 43.2196 35 43.2196C37.0501 43.2196 38.7121 41.5576 38.7121 39.5075" fill="black" fill-opacity="0.7"/>
<path fill-rule="evenodd" clip-rule="evenodd" d="M31.8182 34.4697C31.8182 35.6412 33.2428 36.5909 35 36.5909C36.7573 36.5909 38.1818 35.6412 38.1818 34.4697" fill="black" fill-opacity="0.16"/>
<path d="M28.106 33.409C30.1562 33.409 31.8182 31.7471 31.8182 29.6969C31.8182 27.6468 30.1562 25.9848 28.106 25.9848C26.0559 25.9848 24.3939 27.6468 24.3939 29.6969C24.3939 31.7471 26.0559 33.409 28.106 33.409Z" fill="white"/>
<path d="M41.8939 33.409C43.944 33.409 45.6059 31.7471 45.6059 29.6969C45.6059 27.6468 43.944 25.9848 41.8939 25.9848C39.8437 25.9848 38.1818 27.6468 38.1818 29.6969C38.1818 31.7471 39.8437 33.409 41.8939 33.409Z" fill="white"/>
<path d="M28.1061 31.2878C28.9847 31.2878 29.697 30.5755 29.697 29.6969C29.697 28.8183 28.9847 28.106 28.1061 28.106C27.2274 28.106 26.5151 28.8183 26.5151 29.6969C26.5151 30.5755 27.2274 31.2878 28.1061 31.2878Z" fill="black" fill-opacity="0.7"/>
<path d="M41.8939 31.2878C42.7725 31.2878 43.4848 30.5755 43.4848 29.6969C43.4848 28.8183 42.7725 28.106 41.8939 28.106C41.0152 28.106 40.303 28.8183 40.303 29.6969C40.303 30.5755 41.0152 31.2878 41.8939 31.2878Z" fill="black" fill-opacity="0.7"/>
<path fill-rule="evenodd" clip-rule="evenodd" d="M26.1881 22.1609L26.4296 22.0542C27.8195 21.5024 29.9262 21.7337 31.2144 22.352C31.3647 22.4242 31.2619 22.6577 31.1079 22.6458C27.1521 22.3406 24.489 24.8056 23.5842 26.4746C23.5574 26.5241 23.4763 26.5297 23.4563 26.4835C22.8445 25.0732 24.6362 22.7755 26.1881 22.1609Z" fill="black" fill-opacity="0.6"/>
<path fill-rule="evenodd" clip-rule="evenodd" d="M43.812 22.1609L43.5705 22.0542C42.1806 21.5024 40.0738 21.7337 38.7856 22.352C38.6353 22.4242 38.738 22.6577 38.8921 22.6458C42.8479 22.3406 45.5111 24.8056 46.4159 26.4746C46.4427 26.5241 46.5238 26.5297 46.5438 26.4835C47.1556 25.0732 45.3639 22.7755 43.812 22.1609Z" fill="black" fill-opacity="0.6"/>
<mask id="mask4" style="mask-type:alpha" maskUnits="userSpaceOnUse" x="0" y="0" width="70" height="75">
<path d="M70 0H0V74.2423H70V0Z" fill="white"/>
</mask>
<g mask="url(#mask4)">
<mask id="mask5" style="mask-type:alpha" maskUnits="userSpaceOnUse" x="19" y="25" width="32" height="25">
<path fill-rule="evenodd" clip-rule="evenodd" d="M39.6211 45.1204C38.9546 45.7286 38.2447 46.0022 37.3473 45.8109C37.1929 45.778 36.5634 44.6076 34.9999 44.6076C33.4364 44.6076 32.807 45.778 32.6525 45.8109C31.7552 46.0022 31.0452 45.7286 30.3787 45.1204C29.1258 43.9768 28.0839 42.3998 28.71 40.6793C29.0363 39.7824 29.5669 38.7979 30.5323 38.5121C31.5632 38.2071 33.0105 38.5116 34.0493 38.3033C34.3859 38.2357 34.7535 38.1157 34.9999 37.9166C35.2463 38.1157 35.614 38.2357 35.9504 38.3033C36.9893 38.5116 38.4366 38.2071 39.4675 38.5121C40.4329 38.7979 40.9635 39.7824 41.2899 40.6793C41.916 42.3998 40.8741 43.9768 39.6211 45.1204ZM49.8699 25.9848C48.9656 28.2121 49.3149 30.985 49.1475 33.3231C49.0116 35.2235 48.612 38.0719 46.9245 39.2992C46.0616 39.9269 44.4909 40.9817 43.3633 40.6875C42.5871 40.485 42.5043 38.2587 41.4843 37.4253C40.3273 36.4801 38.8826 36.0648 37.4259 36.1289C36.7973 36.1566 35.526 36.15 34.9999 36.6334C34.4738 36.15 33.2027 36.1566 32.5741 36.1289C31.1173 36.0648 29.6726 36.4801 28.5156 37.4253C27.4956 38.2587 27.4128 40.485 26.6367 40.6875C25.5091 40.9817 23.9383 39.9269 23.0753 39.2992C21.3877 38.0719 20.9884 35.2235 20.8523 33.3231C20.685 30.985 21.0342 28.2121 20.13 25.9848C19.6901 25.9848 19.9802 30.2614 19.9802 30.2614V35.6589C19.9886 39.7125 22.5207 45.7798 28.1347 48.0965C29.5077 48.6631 32.6177 49.5832 34.9999 49.5832C37.3822 49.5832 40.4922 48.7507 41.8652 48.1841C47.4792 45.8674 50.0113 39.7125 50.0197 35.6589V30.2614C50.0197 30.2614 50.3098 25.9848 49.8699 25.9848Z" fill="white"/>
</mask>
<g mask="url(#mask5)">
<path fill-rule="evenodd" clip-rule="evenodd" d="M39.6211 45.1204C38.9546 45.7286 38.2447 46.0022 37.3473 45.8109C37.1929 45.778 36.5634 44.6076 34.9999 44.6076C33.4364 44.6076 32.807 45.778 32.6525 45.8109C31.7552 46.0022 31.0452 45.7286 30.3787 45.1204C29.1258 43.9768 28.0839 42.3998 28.71 40.6793C29.0363 39.7824 29.5669 38.7979 30.5323 38.5121C31.5632 38.2071 33.0105 38.5116 34.0493 38.3033C34.3859 38.2357 34.7535 38.1157 34.9999 37.9166C35.2463 38.1157 35.614 38.2357 35.9504 38.3033C36.9893 38.5116 38.4366 38.2071 39.4675 38.5121C40.4329 38.7979 40.9635 39.7824 41.2899 40.6793C41.916 42.3998 40.8741 43.9768 39.6211 45.1204ZM49.8699 25.9848C48.9656 28.2121 49.3149 30.985 49.1475 33.3231C49.0116 35.2235 48.612 38.0719 46.9245 39.2992C46.0616 39.9269 44.4909 40.9817 43.3633 40.6875C42.5871 40.485 42.5043 38.2587 41.4843 37.4253C40.3273 36.4801 38.8826 36.0648 37.4259 36.1289C36.7973 36.1566 35.526 36.15 34.9999 36.6334C34.4738 36.15 33.2027 36.1566 32.5741 36.1289C31.1173 36.0648 29.6726 36.4801 28.5156 37.4253C27.4956 38.2587 27.4128 40.485 26.6367 40.6875C25.5091 40.9817 23.9383 39.9269 23.0753 39.2992C21.3877 38.0719 20.9884 35.2235 20.8523 33.3231C20.685 30.985 21.0342 28.2121 20.13 25.9848C19.6901 25.9848 19.9802 30.2614 19.9802 30.2614V35.6589C19.9886 39.7125 22.5207 45.7798 28.1347 48.0965C29.5077 48.6631 32.6177 49.5832 34.9999 49.5832C37.3822 49.5832 40.4922 48.7507 41.8652 48.1841C47.4792 45.8674 50.0113 39.7125 50.0197 35.6589V30.2614C50.0197 30.2614 50.3098 25.9848 49.8699 25.9848Z" fill="#331B0C"/>
<path d="M74.2425 19.0909H4.24243V83.7877H74.2425V19.0909Z" fill="#2C1B18"/>
</g>
<g filter="url(#filter0_d)">
<path fill-rule="evenodd" clip-rule="evenodd" d="M30.5584 26.5881C31.1872 26.594 31.4845 26.6986 31.5916 27.3544C31.7002 28.0187 31.5946 28.7655 31.4694 29.4198C31.2784 30.4189 30.9607 31.3978 30.2212 32.128C29.8317 32.5125 29.3565 32.819 28.8512 33.0283C28.5828 33.1395 28.2994 33.2198 28.0161 33.2807C27.9333 33.2984 27.2262 33.3958 27.6599 33.3463C26.6479 33.4619 25.5499 33.4573 24.7047 32.8131C23.768 32.0993 23.1265 30.9696 22.8444 29.8444C22.6794 29.186 22.3326 27.6114 22.9662 27.085C23.692 26.4819 30.5584 26.5881 30.5584 26.5881ZM24.1864 24.7891C22.7439 24.8388 21.7812 25.0923 21.0697 26.5335C19.7658 29.1746 21.9976 33.1356 24.4872 34.215C27.3978 35.477 30.6493 34.0804 32.1881 31.5545C33.003 30.2172 33.4149 28.1917 33.3884 26.6487C33.3546 24.6794 31.979 24.6247 30.3621 24.668L24.1864 24.7891Z" fill="#D6EAF2"/>
<path fill-rule="evenodd" clip-rule="evenodd" d="M39.4228 26.5874C38.7939 26.5934 38.4967 26.6979 38.3895 27.3537C38.281 28.018 38.3865 28.7648 38.5116 29.4191C38.7027 30.4182 39.0204 31.3971 39.7599 32.1273C40.1495 32.5118 40.6246 32.8183 41.13 33.0277C41.3983 33.1388 41.6817 33.2191 41.965 33.28C42.0478 33.2977 42.7548 33.3952 42.3213 33.3456C43.3333 33.4612 44.4312 33.4566 45.2765 32.8124C46.2132 32.0986 46.8547 30.969 47.1368 29.8438C47.3018 29.1853 47.6485 27.6108 47.0149 27.0843C46.2891 26.4812 39.4228 26.5874 39.4228 26.5874ZM45.7947 24.7884C47.2373 24.8381 48.2 25.0917 48.9115 26.5328C50.2153 29.1739 47.9836 33.1349 45.4939 34.2144C42.5833 35.4763 39.3318 34.0797 37.7929 31.5539C36.9781 30.2165 36.5662 28.191 36.5926 26.648C36.6265 24.6787 38.0021 24.624 39.619 24.6674L45.7947 24.7884Z" fill="#D6EAF2"/>
<path fill-rule="evenodd" clip-rule="evenodd" d="M21.7946 25.9654C20.8899 26.0162 19.8561 26.0284 19.0087 26.4195C18.1112 26.8337 17.9726 27.7716 19.1039 27.9008C19.6135 27.9591 20.1236 27.8628 20.6253 27.7733C21.0362 27.6999 21.5944 27.7237 21.9827 27.5666C22.7063 27.2741 22.6599 25.9159 21.7946 25.9654Z" fill="#D6EAF2"/>
<path fill-rule="evenodd" clip-rule="evenodd" d="M48.1872 25.9654C49.0919 26.0162 50.1257 26.0284 50.9732 26.4195C51.8706 26.8337 52.0093 27.7716 50.8779 27.9008C50.3684 27.9591 49.8582 27.8628 49.3565 27.7733C48.9456 27.6999 48.3874 27.7237 47.9991 27.5666C47.2754 27.2741 47.3219 25.9159 48.1872 25.9654Z" fill="#D6EAF2"/>
<path fill-rule="evenodd" clip-rule="evenodd" d="M37.6805 26.5185C37.1645 25.9086 35.8196 25.5565 34.9712 25.5565C34.1227 25.5565 32.8173 25.9086 32.3013 26.5185C32.0411 26.8259 32.0323 27.2374 32.4832 27.4301C33.0448 27.6703 33.5463 27.2348 33.9958 27.007C34.5707 26.7157 35.4539 26.7477 35.9861 27.007C36.439 27.2278 36.9369 27.6703 37.4986 27.4301C37.9496 27.2374 37.9407 26.8259 37.6805 26.5185Z" fill="#D6EAF2"/>
</g>
</g>
</g>
</g>
<defs>
<filter id="filter0_d" x="14.2954" y="22.6591" width="41.391" height="18.0281" filterUnits="userSpaceOnUse" color-interpolation-filters="sRGB">
<feFlood flood-opacity="0" result="BackgroundImageFix"/>
<feColorMatrix in="SourceAlpha" type="matrix" values="0 0 0 0 0 0 0 0 0 0 0 0 0 0 0 0 0 0 127 0" result="hardAlpha"/>
<feOffset dy="2"/>
<feGaussianBlur stdDeviation="2"/>
<feColorMatrix type="matrix" values="0 0 0 0 0 0 0 0 0 0 0 0 0 0 0 0 0 0 0.2 0"/>
<feBlend mode="normal" in2="BackgroundImageFix" result="effect1_dropShadow"/>
<feBlend mode="normal" in="SourceGraphic" in2="effect1_dropShadow" result="shape"/>
</filter>
<clipPath id="clip0">
<rect width="70" height="74.2423" fill="white"/>
</clipPath>
</defs>
</svg>
